<mxfile host="Electron" modified="2024-05-05T04:02:44.559Z" agent="Mozilla/5.0 (Macintosh; Intel Mac OS X 10_15_7) AppleWebKit/537.36 (KHTML, like Gecko) draw.io/24.2.5 Chrome/120.0.6099.109 Electron/28.1.0 Safari/537.36" etag="7Hz_LAOEAEGONou-Hwg4" version="24.2.5" type="device">
  <diagram name="Page-1" id="0M_-H1Um3nQSQtDHLbib">
    <mxGraphModel dx="1987" dy="718" grid="1" gridSize="10" guides="1" tooltips="1" connect="1" arrows="1" fold="1" page="1" pageScale="1" pageWidth="850" pageHeight="1100" math="0" shadow="0">
      <root>
        <mxCell id="0" />
        <mxCell id="1" parent="0" />
        <mxCell id="s2xXO19M9daHDGucuMWq-17" style="edgeStyle=orthogonalEdgeStyle;rounded=0;orthogonalLoop=1;jettySize=auto;html=1;entryX=0;entryY=0.5;entryDx=0;entryDy=0;" edge="1" parent="1" source="s2xXO19M9daHDGucuMWq-1" target="s2xXO19M9daHDGucuMWq-2">
          <mxGeometry relative="1" as="geometry" />
        </mxCell>
        <mxCell id="s2xXO19M9daHDGucuMWq-1" value="Actor" style="shape=umlActor;verticalLabelPosition=bottom;verticalAlign=top;html=1;outlineConnect=0;fillColor=#1ba1e2;fontColor=#ffffff;strokeColor=#006EAF;" vertex="1" parent="1">
          <mxGeometry x="-110" y="240" width="180" height="270" as="geometry" />
        </mxCell>
        <mxCell id="s2xXO19M9daHDGucuMWq-6" style="edgeStyle=orthogonalEdgeStyle;rounded=0;orthogonalLoop=1;jettySize=auto;html=1;entryX=0.5;entryY=0;entryDx=0;entryDy=0;strokeColor=#000033;" edge="1" parent="1" source="s2xXO19M9daHDGucuMWq-2" target="s2xXO19M9daHDGucuMWq-5">
          <mxGeometry relative="1" as="geometry" />
        </mxCell>
        <mxCell id="s2xXO19M9daHDGucuMWq-7" style="edgeStyle=orthogonalEdgeStyle;rounded=0;orthogonalLoop=1;jettySize=auto;html=1;strokeColor=#000033;" edge="1" parent="1" source="s2xXO19M9daHDGucuMWq-2" target="s2xXO19M9daHDGucuMWq-4">
          <mxGeometry relative="1" as="geometry" />
        </mxCell>
        <mxCell id="s2xXO19M9daHDGucuMWq-2" value="&lt;font style=&quot;font-size: 22px;&quot;&gt;اضافة مستخدم&lt;/font&gt;" style="ellipse;whiteSpace=wrap;html=1;fillColor=#1ba1e2;fontColor=#ffffff;strokeColor=#006EAF;" vertex="1" parent="1">
          <mxGeometry x="280" y="130" width="240" height="80" as="geometry" />
        </mxCell>
        <mxCell id="s2xXO19M9daHDGucuMWq-4" value="ادخال بيانات" style="ellipse;whiteSpace=wrap;html=1;aspect=fixed;fillColor=#1ba1e2;fontColor=#ffffff;strokeColor=#006EAF;" vertex="1" parent="1">
          <mxGeometry x="460" y="270" width="80" height="80" as="geometry" />
        </mxCell>
        <mxCell id="s2xXO19M9daHDGucuMWq-5" value="التحقق من صحة البيانات" style="ellipse;whiteSpace=wrap;html=1;aspect=fixed;fillColor=#1ba1e2;fontColor=#ffffff;strokeColor=#006EAF;" vertex="1" parent="1">
          <mxGeometry x="270" y="270" width="80" height="80" as="geometry" />
        </mxCell>
        <mxCell id="s2xXO19M9daHDGucuMWq-8" value="" style="shape=stencil(fZbdcgIhDIWfZm8zQAg/17Z9j85U606tdqz9e/tmZ0c0uJ47xP0I5JwEBl59bp8/1kNwn6fj4W39M76ctgM/DCGM++36OJ50NPDjwKvN4bh+PR6+9i/z74/n6ctp9H74nlb4nbmSKZeJCu5vngmZ6jzzNAO7cX8FVKEsBuBKrgKg9oAE8gkCbLeUhEoEQKSUDZDLeWYRKIl8MEDRmHwfyBrBG6Amyu4+kDxxMoB3jhwgYu7TVAsVkFcWCs4CTBEoF4RctKeOxHIf8IXYpikHikAIf+MNUW94AGSSaoAoFIE3AlOyeWU+p2E5S9yfQZcQILVuQOwZdJNoS9Ls3wA5u2XZTIHECqeJ9kDpSaauRiNVcAY1QhdBzeLBli5WazpkSsBLV25uRaqWRyFawTQzRRIQYirJzq5atkBqLfouwqUxLBepthWb10vrWZY6UOAeyKCCtDV625mm9gmUC4Wc3VLJMMIE1BsA2FW9JraVlQB7n3c9oMKhCLEvIM1zBPZ25/umNQ1tVEC2G+fFCC8g398O2hNQuQlVu752DBfA+q0ptnqO5JFmeuIuo9DY7KjY71UxdJV4EntifPWorW++R/dC4t7V3DlIB5cHx2bc7eb3yvX//QNFp+bHDT/+Aw==);lineShape=1;strokeColor=default;" vertex="1" parent="1">
          <mxGeometry x="572.8679608424757" y="201.87531245851915" width="4.672539772115442" height="4.665236216357698" as="geometry" />
        </mxCell>
        <mxCell id="s2xXO19M9daHDGucuMWq-11" style="edgeStyle=orthogonalEdgeStyle;rounded=0;orthogonalLoop=1;jettySize=auto;html=1;entryX=0.5;entryY=0;entryDx=0;entryDy=0;strokeColor=#030005;" edge="1" parent="1" source="s2xXO19M9daHDGucuMWq-13" target="s2xXO19M9daHDGucuMWq-15">
          <mxGeometry relative="1" as="geometry" />
        </mxCell>
        <mxCell id="s2xXO19M9daHDGucuMWq-12" style="edgeStyle=orthogonalEdgeStyle;rounded=0;orthogonalLoop=1;jettySize=auto;html=1;strokeColor=#030005;" edge="1" parent="1" source="s2xXO19M9daHDGucuMWq-13" target="s2xXO19M9daHDGucuMWq-14">
          <mxGeometry relative="1" as="geometry" />
        </mxCell>
        <mxCell id="s2xXO19M9daHDGucuMWq-13" value="&lt;font style=&quot;font-size: 22px;&quot;&gt;انشاء حساب&amp;nbsp;&lt;/font&gt;" style="ellipse;whiteSpace=wrap;html=1;fillColor=#1ba1e2;fontColor=#ffffff;strokeColor=#006EAF;" vertex="1" parent="1">
          <mxGeometry x="280" y="500" width="240" height="80" as="geometry" />
        </mxCell>
        <mxCell id="s2xXO19M9daHDGucuMWq-14" value="ادخال بيانات" style="ellipse;whiteSpace=wrap;html=1;aspect=fixed;fillColor=#1ba1e2;fontColor=#ffffff;strokeColor=#006EAF;" vertex="1" parent="1">
          <mxGeometry x="460" y="640" width="80" height="80" as="geometry" />
        </mxCell>
        <mxCell id="s2xXO19M9daHDGucuMWq-15" value="التحقق من صحة البيانات" style="ellipse;whiteSpace=wrap;html=1;aspect=fixed;fillColor=#1ba1e2;fontColor=#ffffff;strokeColor=#006EAF;" vertex="1" parent="1">
          <mxGeometry x="270" y="640" width="80" height="80" as="geometry" />
        </mxCell>
        <mxCell id="s2xXO19M9daHDGucuMWq-16" value="" style="shape=stencil(fZbdcgIhDIWfZm8zQAg/17Z9j85U606tdqz9e/tmZ0c0uJ47xP0I5JwEBl59bp8/1kNwn6fj4W39M76ctgM/DCGM++36OJ50NPDjwKvN4bh+PR6+9i/z74/n6ctp9H74nlb4nbmSKZeJCu5vngmZ6jzzNAO7cX8FVKEsBuBKrgKg9oAE8gkCbLeUhEoEQKSUDZDLeWYRKIl8MEDRmHwfyBrBG6Amyu4+kDxxMoB3jhwgYu7TVAsVkFcWCs4CTBEoF4RctKeOxHIf8IXYpikHikAIf+MNUW94AGSSaoAoFIE3AlOyeWU+p2E5S9yfQZcQILVuQOwZdJNoS9Ls3wA5u2XZTIHECqeJ9kDpSaauRiNVcAY1QhdBzeLBli5WazpkSsBLV25uRaqWRyFawTQzRRIQYirJzq5atkBqLfouwqUxLBepthWb10vrWZY6UOAeyKCCtDV625mm9gmUC4Wc3VLJMMIE1BsA2FW9JraVlQB7n3c9oMKhCLEvIM1zBPZ25/umNQ1tVEC2G+fFCC8g398O2hNQuQlVu752DBfA+q0ptnqO5JFmeuIuo9DY7KjY71UxdJV4EntifPWorW++R/dC4t7V3DlIB5cHx2bc7eb3yvX//QNFp+bHDT/+Aw==);lineShape=1;strokeColor=default;" vertex="1" parent="1">
          <mxGeometry x="572.8679608424757" y="571.8753124585191" width="4.672539772115442" height="4.665236216357698" as="geometry" />
        </mxCell>
        <mxCell id="s2xXO19M9daHDGucuMWq-18" style="edgeStyle=orthogonalEdgeStyle;rounded=0;orthogonalLoop=1;jettySize=auto;html=1;entryX=0.019;entryY=0.588;entryDx=0;entryDy=0;entryPerimeter=0;" edge="1" parent="1" source="s2xXO19M9daHDGucuMWq-1" target="s2xXO19M9daHDGucuMWq-13">
          <mxGeometry relative="1" as="geometry" />
        </mxCell>
        <mxCell id="s2xXO19M9daHDGucuMWq-19" style="edgeStyle=orthogonalEdgeStyle;rounded=0;orthogonalLoop=1;jettySize=auto;html=1;entryX=0;entryY=0.5;entryDx=0;entryDy=0;" edge="1" parent="1" source="s2xXO19M9daHDGucuMWq-20" target="s2xXO19M9daHDGucuMWq-23">
          <mxGeometry relative="1" as="geometry" />
        </mxCell>
        <mxCell id="s2xXO19M9daHDGucuMWq-20" value="Actor" style="shape=umlActor;verticalLabelPosition=bottom;verticalAlign=top;html=1;outlineConnect=0;fillColor=#1ba1e2;fontColor=#ffffff;strokeColor=#006EAF;" vertex="1" parent="1">
          <mxGeometry x="900" y="250" width="180" height="270" as="geometry" />
        </mxCell>
        <mxCell id="s2xXO19M9daHDGucuMWq-22" style="edgeStyle=orthogonalEdgeStyle;rounded=0;orthogonalLoop=1;jettySize=auto;html=1;strokeColor=#000033;" edge="1" parent="1" source="s2xXO19M9daHDGucuMWq-23" target="s2xXO19M9daHDGucuMWq-24">
          <mxGeometry relative="1" as="geometry" />
        </mxCell>
        <mxCell id="s2xXO19M9daHDGucuMWq-23" value="&lt;font style=&quot;font-size: 22px;&quot;&gt;الاستجواب الطبي&lt;/font&gt;" style="ellipse;whiteSpace=wrap;html=1;fillColor=#1ba1e2;fontColor=#ffffff;strokeColor=#006EAF;" vertex="1" parent="1">
          <mxGeometry x="1290" y="190" width="240" height="80" as="geometry" />
        </mxCell>
        <mxCell id="s2xXO19M9daHDGucuMWq-24" value="اختيار&amp;nbsp;&lt;div&gt;الاجابة&lt;/div&gt;" style="ellipse;whiteSpace=wrap;html=1;aspect=fixed;fillColor=#1ba1e2;fontColor=#ffffff;strokeColor=#006EAF;" vertex="1" parent="1">
          <mxGeometry x="1370" y="320" width="80" height="80" as="geometry" />
        </mxCell>
      </root>
    </mxGraphModel>
  </diagram>
</mxfile>
